<?xml version="1.0" encoding="UTF-8" standalone="no"?>
<svg
   version="1.1"
   viewBox="0 0 1060 942"
   width="1060"
   height="942"
   id="svg3"
   sodipodi:docname="LogiQo-Labs-logo.SVG"
   inkscape:version="1.4 (e7c3feb1, 2024-10-09)"
   xmlns:inkscape="http://www.inkscape.org/namespaces/inkscape"
   xmlns:sodipodi="http://sodipodi.sourceforge.net/DTD/sodipodi-0.dtd"
   xmlns="http://www.w3.org/2000/svg"
   xmlns:svg="http://www.w3.org/2000/svg">
  <defs
     id="defs3" />
  <sodipodi:namedview
     id="namedview3"
     pagecolor="#ffffff"
     bordercolor="#000000"
     borderopacity="0.25"
     inkscape:showpageshadow="2"
     inkscape:pageopacity="0.0"
     inkscape:pagecheckerboard="0"
     inkscape:deskcolor="#d1d1d1"
     inkscape:zoom="0.092848582"
     inkscape:cx="-2681.7857"
     inkscape:cy="490.04518"
     inkscape:window-width="1616"
     inkscape:window-height="786"
     inkscape:window-x="0"
     inkscape:window-y="40"
     inkscape:window-maximized="0"
     inkscape:current-layer="svg3" />
  <path
     d="m0 0h643l2 1v260l-3 34-5 35-9 40-8 30-11 33-9 22-13 29-8 16-12 23-15 25-17 25-10 14-16 20-12 14-9 10-7 9v155l1 3h157l9 1v37l-1 1h-719l-1-1v-37l6-1 105-1 43-3 31-4 30-5 33-8 27-8 21-7 26-10 29-13 16-8 23-12 28-17 34-24 16-13 22-18 7-7 8-7 16-16 7-8 11-12 9-11 13-16 10-13 13-19 11-17 13-22 16-32 7-16 4-8 8-21 7-19 8-26 9-37 4-22 1-8-18 8-17 7-27 7-9 2-5 16-4 13-7 20-7 19-12 26-8 16-8 15-12 20-10 16-13 18-10 14-8 9-7 9-4 5h-2l-2 4-11 12-28 28-11 9-9 8-11 9-19 14-19 13-21 13-18 10-19 10-26 12-39 15-19 6-25 7-27 6-40 6-31 2h-108l-1-1v-37l1-1h69l1-694zm168 39v3l15 9 9 5 12 8 11 8 11 9 17 16 9 9 9 11 7 8 13 18 12 19 11 19 13 27 4 9h2l8-19 10-21 12-20 12-18 10-14 11-13 12-13 11-11 11-9 12-10 18-12 14-8 12-7v-3zm-130 3-1 2v203l1 9 12 10 18 11 16 8 21 6 16 3 18 1 22-2 23-6 16-7 16-9 11-8 9-8v-2l-9 2-20 4h-26l-19-3-18-7-14-8-10-7-13-12-6-7-7-10-9-17-5-16-4-16v-31l4-17 5-15 10-19 10-13 2-4-24-7-36-7zm559 1-37 7-22 6-1 3 14 19 8 16 7 24 2 13v20l-4 20-5 15-8 16-7 10-7 9-9 9-9 7-12 8-17 8-13 4-14 2h-26l-18-3-8-3h-3v3l11 9 10 7 16 9 10 5 27 7 5 1 21 1 17-1 18-4 17-5 23-12 14-10 8-7 1-5v-207l-1-1zm-452 32-10 10-7 8-8 16-5 15-1 6v19l4 16 5 13 7 11 13 14 12 8 12 6 11 3 10 1h12l15-2 17-7 14-10 7-7 7-10-1-6-8-13-8-10-4 2-5 10-9 8-12 7-5 1h-21l-9-3-10-7h-2v-2l-5-5-6-10-3-10v-17l4-12 8-11 8-7 7-4-2-4-10-7-18-10zm349 0-21 12-8 6-1 3 11 7 5 5 7 9 4 12 1 5v10l-4 14-7 11-8 7-13 7-5 1h-18l-9-3-12-7-8-9-5-9h-3l-8 10-6 11-2 4 1 6 9 11 10 9 14 8 10 4 14 2h15l14-2 13-5 14-9 10-9 9-12 6-12 5-16 1-5v-23l-3-11-6-16-7-11-7-8h-2l-2-4-4-3zm-204 178-9 10-9 11-11 11-14 11-13 9-10 6-26 12v2l25 16 16 13 10 9 8 7 4 5h2l2 4 10 11 11 14 11 16 10 17h4l9-9 4-5 8-7 12-13 11-11 7-8 26-26 11-9 13-10 19-12 7-5-3-3-21-11-11-7-13-10-11-9-5-5-4-5-4-4-7-8-5-6h-2l-4 14-3 18-3 26v7h-30l-10-1-5-41-4-19-2-5zm-252 53-1 1v18l1 33 15-5 16-8 18-11 4-4v-2l-20-7-14-6-16-9zm99 35-14 14-2 1v2l-4 2-18 13-10 6-17 8-16 6-14 4-5 3v37l1 34h8l20-5 20-7 24-10 24-13 15-10 11-8 11-9 10-9 19-19 2-3-1-4-7-6-21-12-15-8-17-7zm342 6-12 5-19 9-10 7-14 10-14 12-20 20-7 8-6 6v2l-4 2-7 8-45 45-8 7-14 13-8 7-28 24-9 7-14 10-10 7-20 12-16 9-23 11-19 8-23 8-17 5-34 7-39 6-2 2v48l1 21h16l27-3 29-5 27-7 23-7 23-8 26-11 25-12 17-9 22-13 24-16 19-14 17-14 11-10 8-7 22-22 7-8 10-11 7-9 12-16 10-14 7-11 9-14 11-19 11-23 10-22 10-26 3-8v-7zm-247 56-9 9-7 8-14 14-11 9-2 1v2l-5 2-10 8-20 13-10 6-28 14-26 10-12 4-21 5-19 3-1 6v36l1 30 13-1 33-6 30-8 22-8 15-6 14-6 19-10 18-10 12-8 16-12 13-10 13-11 9-7 13-13-1-5-10-17-11-16-10-13-11-12zm206 277-11 10-9 7-14 11-14 10-15 11-4 3v66l2 1h60l7-1 1-23v-88l-1-7zm-109 78-46 22-31 13-8 4v1l6 1h78l3-1v-40z"
     fill="#020202"
     id="path1"
     transform="translate(215,56)" />
  <path
     transform="translate(679,149)"
     d="m0 0 1 3 10 6 5 4 8 11 4 12 1 5v10l-4 14-7 11-9 8-13 7-5 1h-18l-9-3-12-7-7-7-7-12v-3h2l2-4 4-6h2l1-4 5-4 7-8 10-10 8-7 11-9z"
     fill="#383A3A"
     id="path2" />
  <path
     d="m0 0 1 2 4 2 6 5 10 8 16 15 9 9 7 8 9 11 2 2-3 2-5 10-7 7-15 9-5 1h-21l-9-3-12-8v-2l-4-2-7-11-4-12v-17l4-12 8-11 9-8 6-3z"
     fill="#373939"
     id="path3"
     transform="translate(394,150)" />
</svg>
